<svg width="48" height="48" viewBox="0 0 48 48" fill="none" xmlns="http://www.w3.org/2000/svg">
<path d="M10.4652 23.2737C9.71444 23.2793 9.03493 22.83 8.74616 22.1369C8.45738 21.4438 8.61679 20.6449 9.14944 20.1158C9.88356 19.4073 11.0469 19.4073 11.781 20.1158C12.1305 20.46 12.3267 20.9305 12.3252 21.4211C12.3252 22.296 13.0345 23.0053 13.9094 23.0053C14.7844 23.0053 15.4936 22.296 15.4936 21.4211C15.4966 20.0891 14.9658 18.8115 14.02 17.8737C13.4443 17.3158 12.7455 16.9012 11.98 16.6632L11.921 15.5789C11.921 14.704 11.2117 13.9947 10.3368 13.9947C9.46187 13.9947 8.7526 14.704 8.7526 15.5789V16.7263C8.06094 16.9671 7.43165 17.3591 6.91049 17.8737C5.47267 19.3079 5.0428 21.4682 5.82202 23.3436C6.60125 25.219 8.43545 26.4386 10.4663 26.4316C11.373 26.4287 12.1917 26.9734 12.5393 27.8108C12.887 28.6481 12.6947 29.6125 12.0526 30.2526C11.382 30.9231 10.3623 31.0994 9.50547 30.6931C8.64868 30.2868 8.13993 29.3856 8.2347 28.4421C8.3219 27.5701 7.68568 26.7925 6.81365 26.7053C5.94162 26.6181 5.16401 27.2543 5.07681 28.1263C4.91236 29.7398 5.48523 31.3412 6.63575 32.4842C7.22768 33.0683 7.94893 33.5047 8.74102 33.7579V35.5789C8.74102 36.4539 9.45029 37.1632 10.3252 37.1632C11.2002 37.1632 11.9094 36.4539 11.9094 35.5789V33.8316C12.8044 33.5974 13.6224 33.1328 14.2821 32.4842C15.825 30.9408 16.2862 28.6199 15.4507 26.6038C14.6153 24.5877 12.6476 23.2734 10.4652 23.2737ZM42.4158 16.6C43.3304 15.6018 43.8446 14.3012 43.86 12.9474C43.86 8.67369 38.9747 5.57895 32.2431 5.57895C25.5115 5.57895 20.6252 8.67369 20.6252 12.9474C20.63 14.3147 21.1214 15.6357 22.0115 16.6737C21.1262 17.6813 20.6339 18.9745 20.6252 20.3158C20.63 21.6831 21.1214 23.0041 22.0115 24.0421C21.1262 25.0497 20.6339 26.3429 20.6252 27.6842C20.63 29.0516 21.1214 30.3726 22.0115 31.4105C21.1262 32.4182 20.6339 33.7113 20.6252 35.0526C20.6252 39.3263 25.2505 42.4211 31.9821 42.4211C38.7136 42.4211 43.86 39.3263 43.86 35.0526C43.8506 33.6788 43.3366 32.3564 42.4158 31.3368C43.3304 30.3386 43.8446 29.038 43.86 27.6842C43.8506 26.3104 43.3366 24.988 42.4158 23.9684C43.3304 22.9702 43.8446 21.6696 43.86 20.3158C43.8506 18.942 43.3366 17.6196 42.4158 16.6ZM40.6915 27.6842C40.6915 30.0105 36.6484 31.8947 31.9821 31.8947C27.3158 31.8947 23.7936 30.0105 23.7936 27.6842C23.8166 27.0633 24.0651 26.472 24.4926 26.0211C26.8142 27.1832 29.3868 27.7545 31.9821 27.6842C34.7248 27.7475 37.4411 27.1366 39.8926 25.9053C40.3769 26.374 40.6629 27.0108 40.6915 27.6842ZM31.9821 20.3158C34.7248 20.3791 37.4411 19.7682 39.8926 18.5368C40.3769 19.0056 40.6629 19.6424 40.6915 20.3158C40.6915 22.6421 36.6484 24.5263 31.9821 24.5263C27.3158 24.5263 23.7936 22.6421 23.7936 20.3158C23.8166 19.6949 24.0651 19.1036 24.4926 18.6526C26.8142 19.8148 29.3868 20.386 31.9821 20.3158ZM32.2431 8.73684C36.9094 8.73684 40.6915 10.6211 40.6915 12.9474C40.6915 15.2737 36.6484 17.1579 31.9821 17.1579C27.3158 17.1579 23.7936 15.2737 23.7936 12.9474C23.7936 10.6211 27.5768 8.73684 32.2431 8.73684ZM31.9821 39.2632C27.3158 39.2632 23.7936 37.3789 23.7936 35.0526C23.8166 34.4317 24.0651 33.8404 24.4926 33.3895C26.8142 34.5516 29.3868 35.1229 31.9821 35.0526C34.7248 35.1159 37.4411 34.505 39.8926 33.2737C40.3769 33.7425 40.6629 34.3792 40.6915 35.0526C40.6915 37.3789 36.6484 39.2632 31.9821 39.2632Z" fill="#3E85E4"/>
</svg>
