<svg width="24" height="24" viewBox="0 0 24 24" fill="none" xmlns="http://www.w3.org/2000/svg">
<path d="M16.0343 7.15403C16.1869 7.11313 16.3496 7.13513 16.4853 7.21507C16.6217 7.293 16.7211 7.4218 16.7616 7.57304C16.8021 7.72429 16.7805 7.88554 16.7013 8.02121L12.2137 15.7615C12.1357 15.8981 12.0059 15.998 11.8534 16.0389C11.7009 16.0797 11.5386 16.0581 11.4026 15.9788L6.55504 13.1921C6.36468 13.0902 6.24523 12.8934 6.24311 12.6782C6.24099 12.4629 6.35654 12.2631 6.54485 12.1564C6.73317 12.0497 6.96456 12.0529 7.14913 12.1648L11.4831 14.6571L15.6742 7.4324C15.7518 7.29529 15.8816 7.19494 16.0343 7.15403Z" fill="#3CBA58"/>
<path fill-rule="evenodd" clip-rule="evenodd" d="M22 12.0002C22 17.5231 17.5228 22.0002 12 22.0002C6.47715 22.0002 2 17.5231 2 12.0002C2 6.4774 6.47715 2.00024 12 2.00024C17.5228 2.00024 22 6.4774 22 12.0002ZM20.625 12.0002C20.625 16.7637 16.7635 20.6252 12 20.6252C7.23654 20.6252 3.375 16.7637 3.375 12.0002C3.375 7.23679 7.23654 3.37524 12 3.37524C16.7635 3.37524 20.625 7.23679 20.625 12.0002Z" fill="#3CBA58"/>
</svg>
