<svg width="48" height="48" viewBox="0 0 48 48" fill="none" xmlns="http://www.w3.org/2000/svg">
<path d="M14.9091 21.2273C16.7861 21.2481 18.4814 20.1092 19.1718 18.3636C19.2716 18.1282 19.4038 17.9079 19.5645 17.7091C19.7688 17.5036 20.0176 17.3481 20.2918 17.2545C21.1478 16.9357 21.9042 16.3963 22.4845 15.6909C23.5481 14.0099 23.4734 11.849 22.2964 10.2455C21.5427 9.49167 20.5177 9.07238 19.4518 9.08182C17.8468 9.20867 16.3235 9.84217 15.1018 10.8909C13.9482 11.7455 11.2664 14.0273 11.2773 16.7091C11.2836 19.2818 12.8464 21.2273 14.9091 21.2273ZM16.7273 13.0727C17.4954 12.3999 18.4385 11.9586 19.4473 11.8C19.7894 11.7919 20.1201 11.9232 20.3636 12.1636C20.5489 12.7524 20.5489 13.3839 20.3636 13.9727C19.6127 14.9 18.8291 14.6 17.6364 15.7909C16.4436 16.9818 16.6945 18.5091 14.9091 18.5091C14.4473 18.5091 14 17.6182 14 16.6909C14 15.5364 15.4436 14.0273 16.7273 13.0727ZM40.7091 13.0182C41.0636 12.5727 41.3073 12.2636 41.4036 12.1364C42.1192 11.4023 42.5133 10.4137 42.4989 9.3887C42.4846 8.36369 42.0631 7.3865 41.3273 6.67273C39.7455 5.1 37.4545 5.94546 35.8464 7.5C35.7818 7.54546 35.6827 7.61818 35.5636 7.7C29.4756 3.3769 21.4857 2.80717 14.8459 6.22271C8.20607 9.63824 4.0233 16.4696 4 23.9364C3.99794 27.1214 4.76779 30.2594 6.24364 33.0818C4.88878 35.5658 4.14112 38.3353 4.06182 41.1636C4.03319 42.4112 4.83775 43.5255 6.03091 43.8909C6.2811 43.955 6.53812 43.9886 6.79637 43.9909C7.69551 44.004 8.53323 43.5361 8.99364 42.7636C9.63155 42.23 10.4538 41.9688 11.2827 42.0364C12.4341 42.0419 13.58 41.8796 14.6845 41.5545C22.7237 45.8497 32.6525 44.1417 38.7944 37.4071C44.9362 30.6725 45.7247 20.6287 40.7091 13.0182ZM37.6909 9.5C37.9917 9.22057 38.3236 8.97655 38.68 8.77273C38.8867 8.62005 39.1465 8.55772 39.4 8.6C39.6464 8.82166 39.7845 9.13931 39.7786 9.47069C39.7727 9.80206 39.6233 10.1146 39.3691 10.3273C39.3427 10.3545 39.3164 10.3909 39.2909 10.4182C39.1918 10.5455 29.3127 23.0636 26.1791 26.0818C24.3578 27.7243 22.1982 28.947 19.8527 29.6636L18.3764 28.1909C19.4505 25.9941 20.7382 23.9083 22.2209 21.9636C24.9127 18.6364 37.3936 9.73636 37.52 9.64546C37.5808 9.60171 37.638 9.55306 37.6909 9.5ZM6.72728 23.9364C6.7426 17.6528 10.1733 11.8746 15.6827 8.85298C21.1921 5.8314 27.9086 6.04443 33.2155 9.40909C29.2673 12.3091 22.2155 17.6455 20.0982 20.2545C18.3431 22.5593 16.8359 25.0427 15.6018 27.6636C15.1381 27.5554 14.6635 27.5005 14.1873 27.5C11.9865 27.5725 9.90998 28.5374 8.43546 30.1727C8.30637 30.3 8.19364 30.4364 8.07182 30.5636C7.1845 28.4668 6.72728 26.2132 6.72728 23.9364ZM6.78454 41.1545C6.78454 41.1545 6.75546 35.6909 10.3636 32.0909C11.3306 30.9728 12.7111 30.2966 14.1873 30.2182C15.1268 30.2211 16.0344 30.5596 16.7464 31.1727C19.1518 33.5636 18.8373 35.4182 17.6364 36.6182C15.9871 38.3666 13.6816 39.3456 11.2782 39.3182C8.07091 39.3182 6.78454 41.1545 6.78454 41.1545ZM24 41.1545C21.8913 41.1524 19.8011 40.761 17.8345 40C18.4514 39.5662 19.0294 39.0795 19.5618 38.5455C21.2982 36.9296 21.775 34.3688 20.7364 32.2364C23.4602 31.3925 25.9645 29.9585 28.0709 28.0364C30.3436 25.8455 35.7009 19.2727 38.9045 15.2727C40.4536 17.897 41.2699 20.889 41.2682 23.9364C41.2526 33.4588 33.5224 41.1666 24 41.1545ZM26.2727 33.9091C25.0238 33.9141 24.0149 34.9298 24.0182 36.1788C24.0215 37.4277 25.0359 38.438 26.2848 38.4363C27.5338 38.4347 28.5454 37.4217 28.5455 36.1727C28.545 35.5709 28.3051 34.9941 27.8787 34.5694C27.4523 34.1447 26.8745 33.9072 26.2727 33.9091ZM33.5455 29.3727C32.6254 29.3727 31.7961 29.9275 31.4449 30.7778C31.0936 31.6282 31.2898 32.6065 31.9416 33.2557C32.5935 33.905 33.5725 34.0972 34.4215 33.7426C35.2705 33.3879 35.8219 32.5564 35.8182 31.6364C35.8132 30.3847 34.7971 29.3727 33.5455 29.3727ZM37.1818 22.1273C35.9328 22.1323 34.9239 23.148 34.9273 24.3969C34.9306 25.6459 35.9449 26.6562 37.1939 26.6545C38.4429 26.6529 39.4545 25.6399 39.4545 24.3909C39.4495 23.1393 38.4335 22.1273 37.1818 22.1273Z" fill="#3E85E4"/>
</svg>
